<?xml version="1.0" encoding="UTF-8" standalone="no"?>
<!-- Created with Inkscape (http://www.inkscape.org/) -->

<svg
   xmlns:dc="http://purl.org/dc/elements/1.1/"
   xmlns:cc="http://creativecommons.org/ns#"
   xmlns:rdf="http://www.w3.org/1999/02/22-rdf-syntax-ns#"
   xmlns:svg="http://www.w3.org/2000/svg"
   xmlns="http://www.w3.org/2000/svg"
   xmlns:sodipodi="http://sodipodi.sourceforge.net/DTD/sodipodi-0.dtd"
   xmlns:inkscape="http://www.inkscape.org/namespaces/inkscape"
   id="svg3151"
   version="1.1"
   inkscape:version="0.48.2 r9819"
   width="16"
   height="16"
   sodipodi:docname="button_ok.png">
  <metadata
     id="metadata3157">
    <rdf:RDF>
      <cc:Work
         rdf:about="">
        <dc:format>image/svg+xml</dc:format>
        <dc:type
           rdf:resource="http://purl.org/dc/dcmitype/StillImage" />
        <dc:title></dc:title>
      </cc:Work>
    </rdf:RDF>
  </metadata>
  <defs
     id="defs3155" />
  <sodipodi:namedview
     pagecolor="#ffffff"
     bordercolor="#666666"
     borderopacity="1"
     objecttolerance="10"
     gridtolerance="10"
     guidetolerance="10"
     inkscape:pageopacity="0"
     inkscape:pageshadow="2"
     inkscape:window-width="1274"
     inkscape:window-height="734"
     id="namedview3153"
     showgrid="true"
     inkscape:snap-global="true"
     inkscape:zoom="32.6875"
     inkscape:cx="5.7985468"
     inkscape:cy="8"
     inkscape:window-x="0"
     inkscape:window-y="0"
     inkscape:window-maximized="1"
     inkscape:current-layer="svg3151">
    <inkscape:grid
       type="xygrid"
       id="grid3943" />
  </sodipodi:namedview>
  <path
     sodipodi:type="arc"
     style="opacity:0.525;fill:#666666;fill-opacity:1;stroke:none"
     id="path3941"
     sodipodi:cx="8.1529636"
     sodipodi:cy="16.107075"
     sodipodi:rx="8.1835566"
     sodipodi:ry="1.6367112"
     d="m 16.33652,16.107075 a 8.1835566,1.6367112 0 1 1 -16.36711292,0 8.1835566,1.6367112 0 1 1 16.36711292,0 z"
     transform="matrix(0.97757008,0,0,0.92231303,0.02990665,1.1442351)" />
  <path
     style="fill:#00b700;fill-opacity:1;stroke:none"
     d="M 8.1096643,3.6099426 9.7650431,4.1689093 C 9.5534187,5.5603304 8.6946808,5.0104111 9.4300783,9.2428979 L 6.20546,9.0617391 C 6.6944162,7.1715843 7.1467861,5.2631364 8.1096643,3.6099426 z"
     id="path3163"
     inkscape:connector-curvature="0"
     sodipodi:nodetypes="ccccc" />
  <path
     sodipodi:type="arc"
     style="fill:#00b700;fill-opacity:1;stroke:none"
     id="path3161"
     sodipodi:cx="7.785851"
     sodipodi:cy="4.206501"
     sodipodi:rx="1.9732313"
     sodipodi:ry="1.9732313"
     d="m 9.7590823,4.206501 a 1.9732313,1.9732313 0 1 1 -3.9464626,0 1.9732313,1.9732313 0 1 1 3.9464626,0 z"
     transform="translate(1.376673,-1.6520076)" />
  <path
     style="fill:none;stroke:#00b700;stroke-width:1.1843226px;stroke-linecap:butt;stroke-linejoin:miter;stroke-opacity:1"
     d="m 8.5605182,8.2646428 c 0,0 2.3822458,2.0731792 2.6086798,2.8985332 0.226434,0.825354 -1.6666566,3.949252 -1.6666566,3.949252"
     id="path3935"
     inkscape:connector-curvature="0"
     sodipodi:nodetypes="czc" />
  <path
     style="fill:none;stroke:#00b700;stroke-width:1.1843226px;stroke-linecap:butt;stroke-linejoin:miter;stroke-opacity:1"
     d="m 7.0678257,8.4006897 c 0,0 -0.7493865,2.6163613 -1.5145358,2.7987183 C 4.7881406,11.381765 2.1112818,8.8443495 2.1112818,8.8443495"
     id="path3937"
     inkscape:connector-curvature="0"
     sodipodi:nodetypes="czc" />
  <path
     style="fill:none;stroke:#00b700;stroke-width:1.18400002;stroke-linecap:butt;stroke-linejoin:miter;stroke-miterlimit:4;stroke-opacity:1;stroke-dasharray:none"
     d="m 8.5372499,4.9184964 c 0,0 -0.3309097,0.8487744 0.046536,1.5892669 0.3774457,0.7404925 2.7298841,-0.2330751 2.6836721,-0.279288"
     id="path3939"
     inkscape:connector-curvature="0"
     sodipodi:nodetypes="czc" />
</svg>
