<?xml version="1.0" encoding="UTF-8" standalone="no"?>
<!-- Created with Inkscape (http://www.inkscape.org/) -->

<svg
   xmlns:dc="http://purl.org/dc/elements/1.1/"
   xmlns:cc="http://creativecommons.org/ns#"
   xmlns:rdf="http://www.w3.org/1999/02/22-rdf-syntax-ns#"
   xmlns:svg="http://www.w3.org/2000/svg"
   xmlns="http://www.w3.org/2000/svg"
   xmlns:sodipodi="http://sodipodi.sourceforge.net/DTD/sodipodi-0.dtd"
   xmlns:inkscape="http://www.inkscape.org/namespaces/inkscape"
   id="svg3151"
   version="1.1"
   inkscape:version="0.48.2 r9819"
   width="16"
   height="16"
   sodipodi:docname="button_ok.svg"
   inkscape:export-filename="/home/augustus/test/chrome-gottago/button_ok.png"
   inkscape:export-xdpi="793.06079"
   inkscape:export-ydpi="793.06079">
  <metadata
     id="metadata3157">
    <rdf:RDF>
      <cc:Work
         rdf:about="">
        <dc:format>image/svg+xml</dc:format>
        <dc:type
           rdf:resource="http://purl.org/dc/dcmitype/StillImage" />
        <dc:title></dc:title>
      </cc:Work>
    </rdf:RDF>
  </metadata>
  <defs
     id="defs3155" />
  <sodipodi:namedview
     pagecolor="#ffffff"
     bordercolor="#666666"
     borderopacity="1"
     objecttolerance="10"
     gridtolerance="10"
     guidetolerance="10"
     inkscape:pageopacity="0"
     inkscape:pageshadow="2"
     inkscape:window-width="1274"
     inkscape:window-height="734"
     id="namedview3153"
     showgrid="true"
     inkscape:snap-global="false"
     inkscape:zoom="32.6875"
     inkscape:cx="5.7985468"
     inkscape:cy="8"
     inkscape:window-x="0"
     inkscape:window-y="0"
     inkscape:window-maximized="1"
     inkscape:current-layer="svg3151">
    <inkscape:grid
       type="xygrid"
       id="grid3943" />
  </sodipodi:namedview>
  <path
     sodipodi:type="arc"
     style="opacity:0.525;fill:#666666;fill-opacity:1;stroke:none"
     id="path3941"
     sodipodi:cx="8.1529636"
     sodipodi:cy="16.107075"
     sodipodi:rx="8.1835566"
     sodipodi:ry="1.6367112"
     d="m 16.33652,16.107075 a 8.1835566,1.6367112 0 1 1 -16.36711292,0 8.1835566,1.6367112 0 1 1 16.36711292,0 z"
     transform="matrix(0.97757008,0,0,0.92231303,0.02990665,1.1442351)" />
  <path
     style="fill:#cb0d04;fill-opacity:1;stroke:none"
     d="M 7.5895878,3.6099426 9,4 C 9,5.4831993 9,6.6624187 9.4300783,9.2428979 L 6.20546,9.0617391 C 6.6944162,7.1715843 7,5.4772855 7.5895878,3.6099426 z"
     id="path3163"
     inkscape:connector-curvature="0"
     sodipodi:nodetypes="ccccc" />
  <path
     sodipodi:type="arc"
     style="fill:#cb0d04;fill-opacity:1;stroke:none"
     id="path3161"
     sodipodi:cx="7.785851"
     sodipodi:cy="4.206501"
     sodipodi:rx="1.9732313"
     sodipodi:ry="1.9732313"
     d="m 9.7590823,4.206501 a 1.9732313,1.9732313 0 1 1 -3.9464626,0 1.9732313,1.9732313 0 1 1 3.9464626,0 z"
     transform="translate(0.52007634,-1.5908222)" />
  <path
     style="fill:none;stroke:#cb0d04;stroke-width:1.18432260000000000px;stroke-linecap:butt;stroke-linejoin:miter;stroke-opacity:1"
     d="m 8.5605182,8.2646428 c 0,0 1.0667583,2.2567352 1.2931923,3.0820892 0.2264345,0.825354 0.4426565,3.806232 0.4426565,3.806232"
     id="path3935"
     inkscape:connector-curvature="0"
     sodipodi:nodetypes="czc" />
  <path
     style="fill:none;stroke:#cb0d04;stroke-width:1.18432260000000000px;stroke-linecap:butt;stroke-linejoin:miter;stroke-opacity:1"
     d="m 6.9760475,8.5842461 c 0,0 -0.8536765,2.0045069 -0.8720883,2.9822749 C 6.0855472,12.544289 5.6906321,15 5.6906321,15"
     id="path3937"
     inkscape:connector-curvature="0"
     sodipodi:nodetypes="czc" />
  <path
     style="fill:none;stroke:#cb0d04;stroke-width:1.18400002000000004;stroke-linecap:butt;stroke-linejoin:miter;stroke-miterlimit:4;stroke-opacity:1;stroke-dasharray:none"
     d="m 8.5066572,5.1835564 c 0,0 1.6570058,0.657213 2.0344518,1.3977055 0.377446,0.7404925 0.520076,2.2543021 0.520076,2.2543021"
     id="path3939"
     inkscape:connector-curvature="0"
     sodipodi:nodetypes="czc" />
  <path
     sodipodi:nodetypes="czc"
     inkscape:connector-curvature="0"
     id="path3964"
     d="M 4.1370204,3.3801404 C 4.1370204,3.3801404 3.6225543,4.2595075 4,5 4.3774457,5.7404925 8.046212,5.4093723 8,5.3631594"
     style="fill:none;stroke:#cb0d04;stroke-width:1.18400002000000004;stroke-linecap:butt;stroke-linejoin:miter;stroke-miterlimit:4;stroke-opacity:1;stroke-dasharray:none;fill-opacity:1" />
</svg>
